<?xml version="1.0" encoding="utf-8"?>
<!-- Generator: Adobe Illustrator 19.2.1, SVG Export Plug-In . SVG Version: 6.00 Build 0)  -->
<svg version="1.1" id="Layer_1" xmlns="http://www.w3.org/2000/svg" xmlns:xlink="http://www.w3.org/1999/xlink" x="0px" y="0px"
	 viewBox="0 0 70 70" style="enable-background:new 0 0 70 70;" xml:space="preserve">
<style type="text/css">
	.st0{fill:none;stroke:#111111;stroke-width:2.3021;stroke-miterlimit:10;}
</style>
<g>
	<ellipse class="st0" cx="35.1" cy="35.3" rx="5.1" ry="5.1"/>
	<path class="st0" d="M39.2,44.7c3.5,2.5,24.2,8.3,28-5c3.8-13.3-7.5-22.3-12.7-15.9c-0.4,0.5-1.2,2.1-2.6,3.7"/>
	<path class="st0" d="M25.7,39.4c-2.5,3.5-8.2,24.2,5,28c13.3,3.8,22.3-7.5,15.9-12.7c-0.3-0.2-1.1-0.7-2.1-1.3"/>
	<path class="st0" d="M31.1,25.9c-3.5-2.5-24.2-8.3-28,5c-3.8,13.3,7.5,22.3,12.7,15.9c0.2-0.3,0.7-1.1,1.3-2"/>
	<path class="st0" d="M44.6,31.3c2.5-3.5,8.3-24.2-5-28c-13.3-3.8-22.3,7.5-15.9,12.7c0.3,0.2,1.1,0.7,2.1,1.3"/>
</g>
</svg>
